<!DOCTYPE svg PUBLIC "-//W3C//DTD SVG 1.1//EN" "http://www.w3.org/Graphics/SVG/1.1/DTD/svg11.dtd">
<!-- Uploaded to: SVG Repo, www.svgrepo.com, Transformed by: SVG Repo Mixer Tools -->
<svg fill="#6d5e0f" width="800px" height="800px" viewBox="0 0 24 24" xmlns="http://www.w3.org/2000/svg">
<g id="SVGRepo_bgCarrier" stroke-width="0"/>
<g id="SVGRepo_tracerCarrier" stroke-linecap="round" stroke-linejoin="round"/>
<g id="SVGRepo_iconCarrier">
<path d="M16.707 2.293A.996.996 0 0 0 16 2H8a.996.996 0 0 0-.707.293l-5 5A.996.996 0 0 0 2 8v8c0 .266.105.52.293.707l5 5A.996.996 0 0 0 8 22h8c.266 0 .52-.105.707-.293l5-5A.996.996 0 0 0 22 16V8a.996.996 0 0 0-.293-.707l-5-5zM13 17h-2v-2h2v2zm0-4h-2V7h2v6z"/>
</g>
</svg>