<?xml version="1.0" encoding="UTF-8" standalone="no"?>
<!-- Uploaded to: SVG Repo, www.svgrepo.com, Transformed by: SVG Repo Mixer Tools -->

<svg
   fill="#000000"
   width="800"
   height="800"
   viewBox="0 0 24 24"
   stroke="#000000"
   stroke-width="0.84"
   version="1.1"
   id="svg1"
   xmlns="http://www.w3.org/2000/svg"
   xmlns:svg="http://www.w3.org/2000/svg">
  <g
     id="SVGRepo_iconCarrier">
    <path
       fill-rule="evenodd"
       clip-rule="evenodd"
       d="m 14.851886,11.246302 c 0.301112,-0.290804 0.780936,-0.282392 1.071665,0.01864 1.294183,1.340187 1.294183,3.502313 0,4.842501 -0.290729,0.301036 -0.770553,0.309449 -1.071665,0.01864 -0.301036,-0.290729 -0.309449,-0.770553 -0.01864,-1.071665 0.726898,-0.752742 0.726898,-1.983717 0,-2.73646 -0.290805,-0.301112 -0.282392,-0.780936 0.01864,-1.071665 z m -0.989282,-0.970637 c 0,-0.936836 -1.069467,-1.4715317 -1.81895,-0.9094759 L 9.8205168,11.033561 H 9.3152275 c -1.255758,0 -2.2736882,1.01793 -2.2736882,2.273688 v 0.757896 c 0,1.255758 1.0179302,2.273689 2.2736882,2.273689 h 0.5052893 l 2.2231372,1.667371 c 0.749483,0.562056 1.81895,0.02736 1.81895,-0.909475 z m -3.132612,1.97053 1.61682,-1.212634 v 5.305273 L 10.729992,15.1262 C 10.467608,14.92945 10.148458,14.823041 9.8205168,14.823041 H 9.3152275 c -0.418586,0 -0.7578961,-0.33931 -0.7578961,-0.757896 v -0.757896 c 0,-0.418586 0.3393101,-0.757896 0.7578961,-0.757896 h 0.5052893 c 0.3279412,0 0.6470912,-0.106408 0.9094752,-0.303158 z"
       fill="#000000"
       id="path1-8"
       style="display:inline;stroke-width:0.636633" />
    <path
       d="M 20,6.5289799 V 19.501002 c 0,1.380712 -1.119288,2.5 -2.5,2.5 h -11 c -1.3807119,0 -2.5,-1.119288 -2.5,-2.5 V 4.5010024 c 0,-1.3807119 1.1192881,-2.5 2.5,-2.5 h 8.972023 c 0.132746,-0.00842 0.270923,0.03584 0.38153,0.1464466 l 4,4 C 19.96416,6.2580561 20.008419,6.3962336 20,6.5289799 Z M 15,3.0010024 H 6.5 c -0.8284271,0 -1.5,0.6715729 -1.5,1.5 V 19.501002 c 0,0.828427 0.6715729,1.5 1.5,1.5 h 11 c 0.828427,0 1.5,-0.671573 1.5,-1.5 V 7.0010024 h -3.5 c -0.276142,0 -0.5,-0.2238576 -0.5,-0.5 z m 1,0.7071068 v 2.2928932 h 2.292893 z"
       id="path1" />
  </g>
</svg>
