<svg xmlns="http://www.w3.org/2000/svg" fill="none" viewBox="0 0 327 334"><path fill="#0D1D3D" d="M286.511 157.748a16.452 16.452 0 0 1-16.364 16.382H57.349a16.455 16.455 0 0 1-16.365-16.382V24.373C40.984 15.406 48.373 8 57.35 8h212.798c8.975 0 16.364 7.398 16.364 16.373v133.375Z"/><path fill="url(#a)" d="M271.204 157.483H56.025V23.843h215.17l.009 133.64Z"/><path fill="#fff" d="m188.838 90.669-50.953-29.846 14.257 54.137 9.24-14.258 14.522 18.225 7.917-8.975-12.405-15.853 17.422-3.44v.01Zm-10.563 18.489-2.116 2.645-15.306-17.704-7.653 10.562-8.976-35.118 33.267 19.01-13.993 2.38 14.777 18.225Z"/><path fill="#0D1D3D" d="m177.763 88.816-33.267-19.018 8.976 34.871 7.397-10.572 15.042 17.696 2.381-2.645-14.786-18.216 14.257-2.116Z"/><path fill="#fff" d="M271.197 159.6H53.92V21.737h219.393V159.6h-2.116Zm-213.054-4.232H269.09V25.97H58.143v129.415-.017Z"/><path fill="#0D1D3D" d="M43.366 189.454 13 268.94l141.248 11.62-4.496 36.441 14.794-17.431 13.464 17.431-3.968-37.234 140.455-13.737-28.505-76.858-6.869-1.058-5.546-26.407c-8.182-6.075-22.174-15.05-44.878-14.001-16.902.793-39.342 5.555-64.682 24.829-14.257-10.299-34.06-25.094-58.086-25.094-24.29 0-45.936 13.737-47.259 18.754l-4.488 22.977-10.818.265v.017Z"/><path fill="#fff" d="M70.285 168.054 49.953 243.59a99.223 99.223 0 0 1 56.235-7.927c15.05 2.381 32.217 7.406 48.052 21.134l8.712-62.071 6.868 62.6c12.141-10.042 30.092-18.753 51.218-21.663 16.893-2.38 40.391-1.587 55.97 7.662l-20.067-79.229c-12.67-7.142-32.209-8.985-50.169-4.762-12.405 3.439-26.133 8.985-43.027 25.887-20.067-20.605-58.342-39.879-93.46-17.167Z"/><defs><radialGradient id="a" cx="0" cy="0" r="1" gradientTransform="matrix(121.185 0 0 121.478 161.697 88.499)" gradientUnits="userSpaceOnUse"><stop stop-color="#3C9FF8"/><stop offset=".023" stop-color="#fff"/><stop offset=".183" stop-color="#C8DDEA"/><stop offset=".407" stop-color="#82B2CF"/><stop offset=".608" stop-color="#4B90BA"/><stop offset=".781" stop-color="#2378AB"/><stop offset=".917" stop-color="#0A69A1"/><stop offset="1" stop-color="#01639E"/></radialGradient></defs></svg>