<?xml version="1.0" encoding="UTF-8" standalone="no"?>
<svg
   version="1.0"
   width="1024pt"
   height="1024pt"
   viewBox="0 0 1024 1024"
   preserveAspectRatio="xMidYMid"
   id="svg13"
   xmlns="http://www.w3.org/2000/svg"
   xmlns:svg="http://www.w3.org/2000/svg">
  <g
     transform="matrix(0.1,0,0,-0.1,0,1024)"
     fill="#000000"
     stroke="none"
     id="g13">
    <path
       d="m 6700.3797,8359.6473 c 351.8928,5.4682 849.5037,-81.793 1175.1287,-175.7127 238.7555,-88.7439 190.4751,-43.1946 205.5329,-411.5549 198.6966,-31.3896 291.2303,69.6917 430.2946,-34.5569 -0.072,-500.3765 -6.9871,-1855.1903 -7.0888,-2355.5669 -13.9951,-385.8155 60.6728,-1390.7642 -47.4049,-1766.1793 -374.0167,-31.2065 -2498.2203,-88.4084 -3307.1913,-87.4068 -871.4119,-1.4777 -2636.5229,80.7084 -3377.4743,74.5408 -32.7812,894.8959 -88.6103,1563.3553 -71.5348,2457.4439 -5.2271,527.8995 -63.0924,1832.6882 373.4977,1691.9298 80.7071,469.111 -108.8849,407.7307 102.9067,403.3155 1282.3092,276.3402 1577.7603,317.0386 2975.5562,-192.5277 541.6978,255.4898 847.8065,385.3979 1547.7773,396.2752 z"
       fill="#f4eede"
       id="path3-0"
       style="fill:#f4eede;fill-opacity:1;stroke-width:11.3154" />
    <path
       d="m 6384,7520 c -303,-69 -568,-319 -672,-636 -49,-149 -55,-418 -13,-579 28,-105 94,-239 172,-348 62,-87 231,-259 322,-327 25,-19 47,-39 47,-44 0,-4 -85,-6 -191,-3 -225,7 -235,11 -290,106 -20,34 -39,64 -41,67 -3,2 -26,6 -53,8 l -47,3 5,-51 c 4,-28 14,-117 23,-198 l 17,-148 h 379 c 208,0 378,3 378,8 0,4 -7,52 -15,107 -8,55 -15,120 -15,145 0,43 -3,48 -66,104 -171,153 -277,433 -288,757 -7,235 28,419 115,589 51,101 68,124 141,198 107,107 214,146 361,130 225,-23 406,-223 484,-534 26,-103 28,-121 27,-334 0,-221 -1,-227 -32,-345 -57,-213 -171,-407 -286,-486 -33,-22 -36,-28 -36,-74 0,-27 -7,-95 -15,-149 -8,-55 -15,-103 -15,-108 0,-4 170,-8 378,-8 h 378 l 25,195 24,195 h -46 c -46,0 -47,0 -90,-67 -68,-103 -63,-101 -291,-108 -109,-3 -198,-4 -198,-2 0,2 37,33 83,70 107,84 251,235 309,323 152,230 204,433 179,708 -21,242 -110,428 -285,601 -121,119 -283,205 -448,239 -106,22 -308,20 -414,-4 z"
       id="path3"
       transform="translate(0,2.5e-4)"
       style="fill:#2e1910;fill-opacity:1" />
    <path
       d="m 3477,7533 c -19,-54 -87,-240 -150,-413 -64,-173 -206,-564 -316,-868 -111,-304 -210,-570 -220,-590 -43,-84 -125,-132 -223,-132 h -38 v -70 -70 h 350 350 v 69 68 l -64,6 c -34,3 -82,13 -104,23 -34,13 -44,23 -53,53 -12,40 -4,66 104,366 l 32,90 381,3 381,2 33,-92 c 18,-51 50,-139 72,-196 47,-127 49,-171 8,-205 -28,-24 -104,-47 -155,-47 -24,0 -25,-2 -25,-70 v -70 h 415 415 v 68 67 l -62,12 c -82,16 -134,53 -170,123 -16,30 -96,244 -179,475 -83,231 -238,657 -345,948 -107,290 -194,532 -194,537 0,6 -43,10 -104,10 h -104 z m 137,-630 c 42,-120 109,-314 149,-430 l 74,-213 -176,-1 c -97,0 -236,-3 -308,-5 -73,-2 -133,-1 -133,4 0,15 309,862 315,862 1,0 37,-98 79,-217 z"
       id="path2"
       transform="translate(0,2.5e-4)"
       style="fill:#2e1910;fill-opacity:1" />
    <path
       d="m 6535,8459 c -292,-12 -573,-65 -840,-159 -179,-63 -470,-217 -553,-293 l -22,-21 -33,25 c -299,223 -733,380 -1197,433 -170,20 -531,21 -700,2 -237,-27 -307,-42 -790,-167 -70,-19 -154,-33 -215,-36 -145,-9 -145,-9 -145,-203 v -150 h -135 c -101,0 -143,-4 -165,-15 -30,-15 -72,-65 -84,-99 -4,-11 -7,-939 -7,-2063 V 3669 l 26,-45 c 32,-54 88,-97 151,-114 37,-11 304,-12 1401,-7 l 1355,6 50,-39 c 63,-51 156,-95 255,-122 112,-31 344,-31 456,0 98,27 192,71 255,121 l 49,39 1359,-6 c 1250,-5 1364,-4 1410,12 67,22 122,69 150,130 l 24,51 v 2029 2030 l -21,43 c -12,24 -37,55 -57,68 -35,24 -44,25 -179,25 h -143 v 144 c 0,79 -3,152 -6,161 -11,26 -60,45 -121,45 -75,0 -199,27 -393,83 -269,78 -512,122 -738,132 -64,3 -144,7 -177,8 -33,2 -132,0 -220,-4 z M 3815,8274 c 420,-28 902,-202 1163,-421 l 52,-45 V 6054 c 0,-965 -2,-1754 -5,-1754 -2,0 -24,21 -47,46 -177,192 -541,341 -968,395 -143,18 -498,16 -670,-5 -177,-21 -392,-63 -565,-112 -251,-70 -400,-105 -472,-111 l -73,-6 v 1776 1777 l 23,5 c 12,3 67,14 122,25 55,11 186,42 290,70 299,79 485,108 750,119 172,7 236,6 400,-5 z m 3075,6 c 263,-18 447,-51 730,-131 80,-22 197,-50 260,-63 l 115,-23 3,-1776 2,-1777 h -34 c -58,0 -193,29 -416,89 -328,90 -431,110 -695,142 -151,19 -524,16 -678,-5 -387,-52 -721,-189 -902,-371 l -65,-65 v 1759 1759 l 43,37 c 119,103 337,221 533,289 338,116 716,163 1104,136 z m -4850,-2462 5,-1878 28,-27 27,-28 1308,-5 c 1469,-6 1327,3 1412,-84 62,-65 127,-87 264,-94 173,-8 242,14 337,103 34,33 71,57 95,64 27,8 427,11 1323,11 h 1283 l 34,34 34,34 v 1876 1877 l 93,-3 92,-3 2,-1935 c 2,-1352 -1,-1945 -8,-1968 -22,-66 73,-62 -1436,-62 H 5565 l -58,-54 c -102,-97 -216,-136 -392,-136 -176,0 -282,37 -385,136 l -57,54 H 3296 1918 l -29,29 -29,29 v 1957 1956 l 88,-3 87,-3 z M 4090,4545 c 316,-53 567,-158 719,-300 70,-66 156,-184 142,-198 -4,-4 -52,21 -105,57 -296,201 -677,306 -1111,306 -203,0 -337,-11 -545,-46 -151,-26 -197,-37 -613,-143 -109,-28 -232,-54 -273,-58 l -74,-6 v 80 79 l 113,17 c 61,9 197,40 301,68 345,92 574,137 806,159 144,13 528,5 640,-15 z m 2835,1 c 190,-27 322,-55 595,-126 268,-69 332,-84 428,-95 l 52,-7 v -80 -81 l -67,7 c -79,8 -194,35 -458,105 -413,111 -672,146 -1030,138 -176,-4 -259,-10 -355,-27 -286,-50 -564,-162 -748,-301 -29,-23 -56,-38 -60,-35 -19,19 93,165 184,240 160,132 464,241 765,275 121,14 562,5 694,-13 z M 4055,4195 c 160,-28 312,-72 425,-123 l 45,-21 -890,1 h -890 l 60,19 c 180,58 428,109 620,128 61,6 124,13 140,15 67,10 404,-3 490,-19 z m 2796,1 c 161,-20 390,-66 544,-110 l 120,-35 h -915 l -915,1 45,20 c 136,63 353,119 528,138 120,12 441,5 593,-14 z"
       id="path1"
       transform="translate(0,2.5e-4)"
       style="fill:#2e1910;fill-opacity:1;stroke:none;stroke-opacity:1" />
    <rect
       style="fill:#f4eede;fill-opacity:1;stroke:none;stroke-width:52.5"
       id="rect14"
       width="7640.6636"
       height="1089.0537"
       x="1270.5626"
       y="-3014.2144"
       transform="scale(1,-1)"
       rx="295.07614"
       ry="312.3627" />
    <path
       d="m 8170,2838 c 0,-18 41,-88 125,-212 69,-101 125,-189 125,-196 0,-13 -225,-281 -246,-293 -8,-5 -14,-24 -14,-47 v -40 h 298 299 l 12,115 c 7,63 10,119 6,125 -14,23 -45,9 -64,-27 -38,-75 -44,-78 -223,-81 l -161,-3 65,78 c 146,177 168,204 168,210 0,3 -45,73 -101,155 -55,83 -98,152 -96,155 10,10 263,-19 284,-33 13,-8 30,-28 38,-45 14,-27 51,-52 65,-44 3,2 1,49 -4,104 l -9,100 -283,3 -284,3 z"
       id="path9"
       style="fill:#2e1910;fill-opacity:1" />
    <path
       d="m 7770,2831 c 0,-25 6,-31 35,-41 l 35,-12 1,-76 c 4,-606 6,-582 -47,-582 -21,0 -24,-5 -24,-35 v -36 l 153,3 152,3 v 29 c 0,24 -5,31 -29,37 -16,5 -33,14 -37,21 -5,7 -9,151 -9,319 0,329 -1,320 53,333 22,5 27,12 27,36 v 30 h -155 -155 z"
       id="path13"
       style="fill:#2e1910;fill-opacity:1" />
    <path
       d="m 6883,2862 -113,-3 v -29 c 0,-19 5,-30 14,-30 8,0 24,-8 36,-18 20,-16 23,-32 31,-140 11,-161 21,-194 73,-247 44,-43 133,-85 182,-85 51,0 64,-16 64,-78 0,-72 -16,-104 -58,-116 -26,-7 -32,-14 -32,-37 v -29 h 165 165 v 29 c 0,23 -5,30 -29,34 -49,10 -61,31 -61,107 v 68 l 39,7 c 60,10 154,59 185,96 44,52 55,88 66,221 13,160 14,164 50,176 24,9 30,17 30,41 v 31 h -113 -114 l -7,-166 c -3,-91 -11,-188 -17,-216 -14,-62 -46,-98 -89,-98 h -30 l 2,197 c 3,197 3,197 27,209 17,9 24,21 25,43 l 1,30 -138,3 -138,3 3,-35 c 2,-28 8,-36 26,-38 12,-2 26,-11 31,-20 11,-21 15,-368 4,-375 -16,-10 -89,23 -114,52 -32,34 -39,77 -48,276 l -6,140 z"
       id="path8"
       transform="translate(0,2.5e-4)"
       style="fill:#2e1910;fill-opacity:1" />
    <path
       d="m 5960,2826 c 0,-29 4,-34 29,-39 39,-8 58,-30 139,-161 158,-254 146,-227 150,-353 4,-128 -3,-149 -53,-159 -30,-5 -35,-10 -35,-35 v -29 l 163,2 162,3 3,27 c 3,22 -2,27 -28,33 -55,12 -60,25 -60,155 v 118 l 75,131 c 134,234 157,266 206,276 24,5 29,12 29,36 v 29 h -145 -145 v -35 c 0,-27 4,-35 18,-35 28,0 55,-35 48,-62 -6,-24 -110,-216 -124,-230 -11,-11 -154,252 -147,270 3,8 14,16 25,19 15,4 20,14 20,39 v 34 h -165 -165 z"
       id="path12"
       transform="translate(0,2.5e-4)"
       style="fill:#2e1910;fill-opacity:1" />
    <path
       d="m 5615,2868 c -2,-7 -36,-103 -74,-213 -177,-506 -184,-523 -222,-532 -14,-4 -19,-14 -19,-39 v -34 h 120 120 v 35 c 0,30 -3,35 -23,35 -26,0 -47,17 -47,39 -1,31 154,491 161,479 4,-7 41,-120 83,-252 82,-256 83,-266 25,-266 -26,0 -29,-3 -29,-35 v -35 h 160 160 v 28 c 0,19 -8,32 -29,44 -16,9 -36,29 -44,45 -8,15 -68,182 -133,371 l -118,342 h -43 c -26,0 -45,-5 -48,-12 z"
       id="path7"
       transform="translate(0,2.5e-4)"
       style="fill:#2e1910;fill-opacity:1" />
    <path
       d="m 4859,2853 c -6,-15 -37,-102 -69,-193 -186,-529 -191,-540 -232,-540 -14,0 -18,-8 -18,-35 v -35 h 126 125 l -3,33 c -2,24 -8,33 -26,35 -12,2 -27,13 -33,24 -11,20 -9,33 17,126 l 16,53 115,-3 116,-3 30,-82 c 16,-45 27,-89 24,-96 -3,-8 -24,-17 -46,-21 -37,-6 -41,-9 -41,-36 v -30 h 160 160 v 30 c 0,23 -6,33 -25,42 -44,20 -47,27 -248,603 l -52,150 -43,3 c -38,3 -43,1 -53,-25 z m 61,-319 c 22,-65 40,-122 40,-126 0,-4 -39,-8 -86,-8 -73,0 -85,2 -80,15 3,9 22,68 42,131 20,63 38,113 40,111 3,-2 22,-57 44,-123 z"
       id="path6"
       transform="translate(0,2.5e-4)"
       style="fill:#2e1910;fill-opacity:1" />
    <path
       d="m 3770,2831 c 0,-23 5,-30 27,-36 54,-13 53,-6 53,-330 0,-167 -3,-310 -6,-319 -3,-8 -21,-20 -40,-26 -28,-10 -34,-16 -34,-41 v -29 h 155 155 v 34 c 0,30 -3,35 -27,38 -40,4 -53,39 -53,145 0,84 2,94 26,123 21,24 29,28 40,19 22,-18 144,-246 144,-268 0,-12 -7,-21 -15,-21 -10,0 -15,-11 -15,-35 v -35 h 155 155 v 33 c 0,28 -5,34 -40,49 -35,14 -55,40 -170,213 l -129,197 100,109 c 98,105 145,139 188,139 17,0 21,6 21,35 v 35 h -150 -150 v -30 c 0,-19 5,-30 14,-30 8,0 24,-8 37,-19 l 23,-18 -20,-31 c -27,-43 -194,-232 -205,-232 -10,0 -13,239 -3,264 3,8 21,20 40,26 28,10 34,16 34,41 v 29 h -155 -155 z"
       id="path11"
       transform="translate(0,2.5e-4)"
       style="fill:#2e1910;fill-opacity:1" />
    <path
       d="m 3265,2867 c -159,-53 -256,-186 -272,-374 -8,-92 18,-204 64,-281 45,-74 73,-104 136,-138 48,-27 60,-29 162,-29 101,0 114,2 162,27 163,87 246,293 198,496 -46,194 -160,300 -330,308 -49,3 -95,-1 -120,-9 z m 138,-88 c 96,-26 157,-134 165,-290 5,-110 -8,-180 -46,-253 -86,-160 -273,-132 -342,51 -43,114 -36,282 15,383 27,53 58,83 105,104 42,18 54,19 103,5 z"
       id="path5"
       transform="translate(0,2.5e-4)"
       style="fill:#2e1910;fill-opacity:1" />
    <path
       d="m 2190,2832 c 0,-24 6,-31 40,-45 l 40,-15 v -316 c 0,-301 -1,-316 -19,-326 -11,-5 -29,-10 -40,-10 -17,0 -21,-6 -21,-35 v -35 h 160 160 v 30 c 0,26 -5,31 -30,36 -16,4 -35,13 -41,21 -12,14 -19,330 -11,541 l 3,93 137,-3 137,-3 3,-307 c 3,-334 2,-338 -54,-338 -21,0 -24,-5 -24,-35 v -35 h 155 155 v 34 c 0,30 -3,35 -27,38 -49,6 -53,28 -53,330 0,160 4,288 10,303 6,15 22,30 39,36 21,8 30,18 33,40 l 5,29 h -379 -378 z"
       id="path10"
       transform="translate(0,2.5e-4)"
       style="fill:#2e1910;fill-opacity:1" />
    <path
       d="m 1747,2838 c -8,-24 -54,-153 -102,-288 -146,-415 -144,-413 -192,-431 -17,-6 -23,-17 -23,-39 v -30 h 130 130 v 29 c 0,25 -5,31 -30,36 -42,9 -53,34 -40,91 6,25 17,61 25,80 l 14,35 112,-3 112,-3 29,-85 c 15,-47 26,-90 24,-96 -2,-6 -23,-14 -45,-18 -37,-6 -41,-9 -41,-36 v -30 h 160 160 v 30 c 0,22 -7,33 -29,45 -39,20 -55,57 -186,434 l -110,316 -41,3 c -41,3 -42,2 -57,-40 z m 63,-304 c 22,-65 40,-122 40,-126 0,-4 -38,-8 -84,-8 h -84 l 41,130 c 22,71 42,128 44,126 2,-1 21,-56 43,-122 z"
       id="path4"
       transform="translate(0,2.5e-4)"
       style="fill:#2e1910;fill-opacity:1" />
  </g>
</svg>
