<?xml version="1.0" encoding="UTF-8" standalone="no"?>
<!-- Uploaded to: SVG Repo, www.svgrepo.com, Transformed by: SVG Repo Mixer Tools -->

<svg
   fill="#6d5e0f"
   width="723.11102"
   height="678.66663"
   viewBox="0 0 32.539996 30.539998"
   version="1.1"
   preserveAspectRatio="xMidYMid"
   stroke="#6d5e0f"
   stroke-width="0.54"
   id="svg3"
   xmlns="http://www.w3.org/2000/svg"
   xmlns:svg="http://www.w3.org/2000/svg">
  <defs
     id="defs3" />
  <g
     id="SVGRepo_iconCarrier"
     transform="translate(-1.7299999,-2.73)">
    <title
       id="title1">organization-line</title>
    <polygon
       points="27.8,17.2 18.8,17.2 18.8,14 17.2,14 17.2,17.2 8.2,17.2 8.2,21.88 9.8,21.88 9.8,18.8 26.2,18.8 26.2,21.88 27.8,21.88 "
       class="clr-i-outline clr-i-outline-path-1"
       id="polygon1" />
    <path
       d="M 14,23 H 4 a 2,2 0 0 0 -2,2 v 6 a 2,2 0 0 0 2,2 h 10 a 2,2 0 0 0 2,-2 V 25 A 2,2 0 0 0 14,23 Z M 4,31 v -6 h 10 v 6 z"
       class="clr-i-outline clr-i-outline-path-2"
       id="path1" />
    <path
       d="M 32,23 H 22 a 2,2 0 0 0 -2,2 v 6 a 2,2 0 0 0 2,2 h 10 a 2,2 0 0 0 2,-2 v -6 a 2,2 0 0 0 -2,-2 z m -10,8 v -6 h 10 v 6 z"
       class="clr-i-outline clr-i-outline-path-3"
       id="path2" />
    <path
       d="m 13,13 h 10 a 2,2 0 0 0 2,-2 V 5 A 2,2 0 0 0 23,3 H 13 a 2,2 0 0 0 -2,2 v 6 a 2,2 0 0 0 2,2 z m 0,-8 h 10 v 6 H 13 Z"
       class="clr-i-outline clr-i-outline-path-4"
       id="path3" />
  </g>
</svg>
